<svg width="16" height="16" viewBox="0 0 16 16" fill="none" xmlns="http://www.w3.org/2000/svg">
<path fill-rule="evenodd" clip-rule="evenodd" d="M3.33334 1.33325H12.6667C13.7712 1.33325 14.6667 2.22868 14.6667 3.33325V9.99992V12.6666C14.6667 13.7712 13.7712 14.6666 12.6667 14.6666H3.33334C2.22877 14.6666 1.33334 13.7712 1.33334 12.6666V3.33325C1.33334 2.22868 2.22877 1.33325 3.33334 1.33325ZM13.3333 8.39044V3.33325C13.3333 2.96506 13.0349 2.66659 12.6667 2.66659H3.33334C2.96515 2.66659 2.66668 2.96506 2.66668 3.33325V12.6666C2.66668 12.9525 2.84661 13.1963 3.0994 13.2911L10.1953 6.19518C10.4556 5.93483 10.8777 5.93483 11.1381 6.19518L13.3333 8.39044ZM4.94282 13.3333L10.6667 7.60939L13.3333 10.2761V12.6666C13.3333 13.0348 13.0349 13.3333 12.6667 13.3333H4.94282ZM4.00001 5.66659C4.00001 6.58706 4.7462 7.33325 5.66668 7.33325C6.58715 7.33325 7.33334 6.58706 7.33334 5.66659C7.33334 4.74611 6.58715 3.99992 5.66668 3.99992C4.7462 3.99992 4.00001 4.74611 4.00001 5.66659ZM5.66668 5.99992C5.85077 5.99992 6.00001 5.85068 6.00001 5.66659C6.00001 5.48249 5.85077 5.33325 5.66668 5.33325C5.48258 5.33325 5.33334 5.48249 5.33334 5.66659C5.33334 5.85068 5.48258 5.99992 5.66668 5.99992Z" fill="black"/>
<mask id="mask0_0_982" style="mask-type:alpha" maskUnits="userSpaceOnUse" x="1" y="1" width="14" height="14">
<path fill-rule="evenodd" clip-rule="evenodd" d="M3.33334 1.33325H12.6667C13.7712 1.33325 14.6667 2.22868 14.6667 3.33325V9.99992V12.6666C14.6667 13.7712 13.7712 14.6666 12.6667 14.6666H3.33334C2.22877 14.6666 1.33334 13.7712 1.33334 12.6666V3.33325C1.33334 2.22868 2.22877 1.33325 3.33334 1.33325ZM13.3333 8.39044V3.33325C13.3333 2.96506 13.0349 2.66659 12.6667 2.66659H3.33334C2.96515 2.66659 2.66668 2.96506 2.66668 3.33325V12.6666C2.66668 12.9525 2.84661 13.1963 3.0994 13.2911L10.1953 6.19518C10.4556 5.93483 10.8777 5.93483 11.1381 6.19518L13.3333 8.39044ZM4.94282 13.3333L10.6667 7.60939L13.3333 10.2761V12.6666C13.3333 13.0348 13.0349 13.3333 12.6667 13.3333H4.94282ZM4.00001 5.66659C4.00001 6.58706 4.7462 7.33325 5.66668 7.33325C6.58715 7.33325 7.33334 6.58706 7.33334 5.66659C7.33334 4.74611 6.58715 3.99992 5.66668 3.99992C4.7462 3.99992 4.00001 4.74611 4.00001 5.66659ZM5.66668 5.99992C5.85077 5.99992 6.00001 5.85068 6.00001 5.66659C6.00001 5.48249 5.85077 5.33325 5.66668 5.33325C5.48258 5.33325 5.33334 5.48249 5.33334 5.66659C5.33334 5.85068 5.48258 5.99992 5.66668 5.99992Z" fill="white"/>
</mask>
<g mask="url(#mask0_0_982)">
<rect width="16" height="16" fill="#08C25E"/>
</g>
</svg>
