<svg width="50" height="50" viewBox="0 0 50 50" fill="none" xmlns="http://www.w3.org/2000/svg">
<defs>
<linearGradient id="paint0_linear_57_149" x1="25" y1="0" x2="25" y2="50" gradientUnits="userSpaceOnUse">
<stop stop-color="#F16041"/>
<stop offset="1" stop-color="#F02C6A"/>
</linearGradient>
</defs>
<circle cx="25" cy="25" r="25" fill="url(#paint0_linear_57_149)"/>
<path fill-rule="evenodd" clip-rule="evenodd" d="M17.2006 8.49943C16.3772 8.69854 15.7259 9.41422 15.56 10.3023C15.4706 10.7808 15.4706 39.2305 15.56 39.709C15.6975 40.4447 16.1661 41.0642 16.8208 41.3757L17.1857 41.5493H25H32.8142L33.1791 41.3757C33.8339 41.0642 34.3025 40.4447 34.4399 39.709C34.5294 39.2305 34.5294 10.7808 34.4399 10.3023C34.3025 9.56658 33.8339 8.94712 33.1791 8.6356L32.8142 8.46201L25.1275 8.45171C20.7719 8.44582 17.3367 8.46654 17.2006 8.49943ZM27.5516 10.1779C27.6 10.2699 27.6 10.3449 27.5516 10.4369C27.4851 10.563 27.418 10.5664 25 10.5664C22.5819 10.5664 22.5148 10.563 22.4484 10.4369C22.3999 10.3449 22.3999 10.2699 22.4484 10.1779C22.5148 10.0518 22.5819 10.0484 25 10.0484C27.418 10.0484 27.4851 10.0518 27.5516 10.1779ZM32.9737 24.7143V37.4377H25H17.0262V24.7143V11.9909H25H32.9737V24.7143ZM25.3626 38.2836C25.5826 38.3679 25.8736 38.6404 25.9944 38.8751C26.1964 39.2676 26.0632 39.8708 25.7075 40.1747C24.9805 40.7955 23.9155 40.2842 23.9155 39.3143C23.9155 38.5782 24.6909 38.0259 25.3626 38.2836Z" fill="white"/>
</svg>
