<svg width="50" height="51" viewBox="0 0 50 51" fill="none" xmlns="http://www.w3.org/2000/svg">
<path d="M50 25.3994C50 39.2065 38.8071 50.3994 25 50.3994C11.1929 50.3994 0 39.2065 0 25.3994C0 11.5923 11.1929 0.399414 25 0.399414C38.8071 0.399414 50 11.5923 50 25.3994Z" fill="white"/>
<path fill-rule="evenodd" clip-rule="evenodd" d="M25 49.0661C38.0707 49.0661 48.6667 38.4702 48.6667 25.3994C48.6667 12.3287 38.0707 1.73275 25 1.73275C11.9293 1.73275 1.33333 12.3287 1.33333 25.3994C1.33333 38.4702 11.9293 49.0661 25 49.0661ZM25 50.3994C38.8071 50.3994 50 39.2065 50 25.3994C50 11.5923 38.8071 0.399414 25 0.399414C11.1929 0.399414 0 11.5923 0 25.3994C0 39.2065 11.1929 50.3994 25 50.3994Z" fill="#0180C7"/>
<path d="M12.1911 29.1792C13.8516 29.1792 15.4133 29.1682 16.9639 29.1792C17.8326 29.1902 18.3055 29.5531 18.3935 30.2459C18.4925 31.1147 17.9866 31.6976 17.0408 31.7086C15.2593 31.7306 13.4887 31.7196 11.7072 31.7196C11.1903 31.7196 10.6844 31.7416 10.1676 31.7086C9.52973 31.6756 8.90289 31.5436 8.59497 30.8838C8.28704 30.2239 8.50699 29.6301 8.92488 29.0912C10.6185 26.9357 12.323 24.7692 14.0276 22.6137C14.1266 22.4818 14.2256 22.3498 14.3245 22.2288C14.2146 22.0419 14.0606 22.1298 13.9286 22.1188C12.7409 22.1078 11.5422 22.1188 10.3545 22.1078C10.0796 22.1078 9.80466 22.0749 9.54073 22.0199C8.91389 21.8769 8.52898 21.2501 8.67195 20.6342C8.77092 20.2163 9.10084 19.8754 9.51873 19.7764C9.78267 19.7104 10.0576 19.6774 10.3325 19.6774C12.29 19.6664 14.2585 19.6664 16.216 19.6774C16.568 19.6664 16.9089 19.7104 17.2498 19.7984C17.9976 20.0513 18.3165 20.7442 18.0196 21.47C17.7557 22.0969 17.3378 22.6357 16.9199 23.1746C15.4792 25.0112 14.0386 26.8367 12.598 28.6513C12.477 28.7943 12.367 28.9372 12.1911 29.1792Z" fill="#0180C7"/>
<path d="M24.9474 23.3943C25.2114 23.0534 25.4863 22.7345 25.9372 22.6465C26.806 22.4705 27.6198 23.0314 27.6308 23.9112C27.6638 26.1107 27.6528 28.3101 27.6308 30.5096C27.6308 31.0815 27.2569 31.5874 26.718 31.7523C26.1681 31.9613 25.5413 31.7963 25.1784 31.3234C24.9914 31.0925 24.9145 31.0485 24.6505 31.2575C23.6498 32.0713 22.5171 32.2142 21.2964 31.8183C19.3388 31.1805 18.536 29.6518 18.3161 27.7933C18.0852 25.7807 18.756 24.0652 20.5595 23.0094C22.0552 22.1186 23.5728 22.1956 24.9474 23.3943ZM21.0544 27.4084C21.0764 27.8922 21.2304 28.3541 21.5163 28.739C22.1102 29.5309 23.2429 29.6958 24.0457 29.102C24.1776 29.003 24.2986 28.882 24.4086 28.739C25.0244 27.9032 25.0244 26.5286 24.4086 25.6928C24.1007 25.2639 23.6168 25.0109 23.0999 24.9999C21.8902 24.9229 21.0434 25.8577 21.0544 27.4084ZM32.5685 27.4743C32.4806 24.648 34.3391 22.5365 36.9784 22.4595C39.7827 22.3716 41.8282 24.2521 41.9162 27.0015C42.0042 29.7838 40.2996 31.7523 37.6713 32.0163C34.801 32.3022 32.5245 30.2237 32.5685 27.4743ZM35.3288 27.2104C35.3069 27.7603 35.4718 28.2992 35.8017 28.75C36.4066 29.5419 37.5393 29.6958 38.3311 29.08C38.4521 28.992 38.551 28.882 38.65 28.772C39.2879 27.9362 39.2879 26.5286 38.661 25.6928C38.3531 25.2749 37.8692 25.0109 37.3523 24.9999C36.1646 24.9339 35.3288 25.8357 35.3288 27.2104ZM31.6008 25.2859C31.6008 26.9905 31.6118 28.6951 31.6008 30.3997C31.6118 31.1805 30.9959 31.8293 30.2151 31.8513C30.0832 31.8513 29.9402 31.8403 29.8082 31.8073C29.2584 31.6644 28.8405 31.0815 28.8405 30.3887V21.6457C28.8405 21.1288 28.8295 20.623 28.8405 20.1061C28.8515 19.2593 29.3903 18.7094 30.2041 18.7094C31.0399 18.6984 31.6008 19.2483 31.6008 20.1281C31.6118 21.8437 31.6008 23.5703 31.6008 25.2859Z" fill="#0180C7"/>
</svg>
