<svg width="50" height="50" viewBox="0 0 50 50" fill="none" xmlns="http://www.w3.org/2000/svg">
<circle cx="25" cy="25" r="25" fill="#3A6EC5"/>
<path fill-rule="evenodd" clip-rule="evenodd" d="M27.2804 10.6217C23.4665 11.2379 21.0771 13.6866 20.3629 17.711C20.2662 18.2556 20.2313 19.1611 20.2032 21.86L20.1671 25.3124H17.3204H14.4738V28.8226V32.3329H17.3282H20.1827V41.1664V49.9998H23.7315H27.2804V41.1664V32.3329H30.0191C31.5254 32.3329 32.7579 32.3128 32.7579 32.2884C32.7579 32.2639 32.9488 30.7217 33.1822 28.8612C33.4156 27.0007 33.6065 25.4412 33.6065 25.3955C33.6065 25.3375 32.6498 25.3124 30.4394 25.3124H27.2723L27.2974 22.2072C27.3195 19.4581 27.3381 19.0622 27.4589 18.7548C27.7606 17.987 28.2167 17.5559 29.0351 17.2651C29.4366 17.1224 29.7064 17.1043 31.8514 17.0758L34.2237 17.0441V13.9239C34.2237 11.4966 34.2022 10.7964 34.1273 10.7711C33.8714 10.6843 31.8206 10.5676 30.0191 10.5371C28.4548 10.5107 27.8519 10.5293 27.2804 10.6217Z" fill="#FDFDFD"/>
</svg>
