<svg width="51" height="51" viewBox="0 0 51 51" fill="none" xmlns="http://www.w3.org/2000/svg">
<path d="M50.7734 25.3994C50.7734 39.2065 39.5806 50.3994 25.7734 50.3994C11.9663 50.3994 0.773438 39.2065 0.773438 25.3994C0.773438 11.5923 11.9663 0.399414 25.7734 0.399414C39.5806 0.399414 50.7734 11.5923 50.7734 25.3994Z" fill="white"/>
<path fill-rule="evenodd" clip-rule="evenodd" d="M25.7734 49.0661C38.8442 49.0661 49.4401 38.4702 49.4401 25.3994C49.4401 12.3287 38.8442 1.73275 25.7734 1.73275C12.7027 1.73275 2.10677 12.3287 2.10677 25.3994C2.10677 38.4702 12.7027 49.0661 25.7734 49.0661ZM25.7734 50.3994C39.5806 50.3994 50.7734 39.2065 50.7734 25.3994C50.7734 11.5923 39.5806 0.399414 25.7734 0.399414C11.9663 0.399414 0.773438 11.5923 0.773438 25.3994C0.773438 39.2065 11.9663 50.3994 25.7734 50.3994Z" fill="#4F86EC"/>
<path fill-rule="evenodd" clip-rule="evenodd" d="M13.8046 19.3484C14.3485 18.152 15.117 17.1082 16.0182 16.1637C18.0576 14.0262 20.5268 12.6573 23.4497 12.1904C27.5407 11.5368 31.2021 12.5015 34.3662 15.226C34.5661 15.3982 34.6155 15.4988 34.3981 15.7117C33.2813 16.8053 32.1822 17.9168 31.0765 19.0218C30.9631 19.1352 30.8866 19.2735 30.6851 19.0889C27.8994 16.5365 23.3524 16.5656 20.3923 19.3184C19.3761 20.2636 18.6534 21.3962 18.1803 22.6945C18.1113 22.6493 18.0387 22.609 17.9736 22.5589C16.5835 21.4893 15.1941 20.4187 13.8046 19.3484Z" fill="#D7282A"/>
<path fill-rule="evenodd" clip-rule="evenodd" d="M18.1476 27.9075C18.5468 28.9216 19.0431 29.8806 19.7806 30.695C21.6558 32.766 23.9803 33.6594 26.7653 33.3703C28.0593 33.236 29.2383 32.7977 30.3399 32.1243C30.4457 32.2188 30.5462 32.3197 30.6577 32.4068C31.9469 33.4134 33.2378 34.4179 34.5283 35.4229C33.1053 36.7743 31.4252 37.674 29.5351 38.1518C25.079 39.2782 20.9714 38.5663 17.3238 35.6879C15.8158 34.4979 14.6297 33.0279 13.7936 31.2879C15.245 30.161 16.6963 29.0342 18.1476 27.9075Z" fill="#45AC43"/>
<path fill-rule="evenodd" clip-rule="evenodd" d="M34.5286 35.4224C33.2381 34.4174 31.9472 33.4129 30.6579 32.4064C30.5465 32.3193 30.4459 32.2183 30.3402 32.1238C31.2139 31.457 31.943 30.6684 32.4218 29.6663C32.6126 29.2669 32.7468 28.8487 32.8738 28.4259C32.9612 28.1345 32.9341 28.021 32.5735 28.0241C30.4258 28.0424 28.2778 28.0332 26.13 28.0331C25.675 28.0331 25.6747 28.0328 25.6747 27.5624C25.6745 26.1066 25.6817 24.6508 25.6685 23.195C25.666 22.9142 25.7152 22.8064 26.0313 22.8073C29.9929 22.8188 33.9545 22.8163 37.9162 22.811C38.1299 22.8107 38.2644 22.8266 38.3015 23.0867C38.7945 26.5515 38.3994 29.8622 36.5859 32.92C36.0307 33.8561 35.3636 34.711 34.5286 35.4224Z" fill="#5D7FBE"/>
<path fill-rule="evenodd" clip-rule="evenodd" d="M18.1477 27.907C16.6964 29.0338 15.2452 30.1606 13.7938 31.2874C13.085 29.9697 12.6762 28.5541 12.4854 27.0797C12.1549 24.5252 12.5181 22.0674 13.6017 19.7234C13.6613 19.5946 13.7367 19.4732 13.8046 19.3483C15.1942 20.4184 16.5835 21.4891 17.9737 22.5585C18.0388 22.6086 18.1114 22.649 18.1804 22.6942C17.5983 24.4283 17.6273 26.1661 18.1477 27.907Z" fill="#F4C300"/>
</svg>
