<svg width="26" height="30" viewBox="0 0 26 30" fill="none" xmlns="http://www.w3.org/2000/svg">
<path fill-rule="evenodd" clip-rule="evenodd" d="M18.0633 0.0268319C17.73 0.0719263 17.0245 0.288485 16.551 0.491204C14.4556 1.38811 12.8913 3.26565 12.429 5.43903C12.3472 5.82348 12.3155 6.93371 12.3814 7.10547C12.4467 7.27559 13.1385 7.21331 13.9585 6.96344C15.9243 6.36443 17.6129 4.57884 18.2288 2.44809C18.4243 1.77155 18.5244 0.945431 18.4749 0.416731C18.4314 -0.0465856 18.4533 -0.0258856 18.0633 0.0268319ZM6.57548 7.11227C4.97231 7.41644 3.49376 8.28514 2.22279 9.6694C1.07279 10.922 0.40406 12.4062 0.125988 14.323C-0.233535 16.8018 0.182928 19.7136 1.29176 22.474C2.18115 24.6881 3.63396 26.9909 5.01254 28.3716C6.22921 29.5901 7.26151 30.0735 8.47067 29.9911C9.08493 29.9492 9.38047 29.8634 10.457 29.4144C11.4692 28.9924 11.9994 28.8494 12.826 28.7754C14.0043 28.67 14.944 28.8451 16.2612 29.4155C17.2666 29.8509 17.59 29.9474 18.1806 29.9884C19.9478 30.1109 21.5685 28.8585 23.5739 25.8207C23.9373 25.2701 24.3955 24.5294 24.5922 24.1746C24.9357 23.5549 25.5985 22.1521 25.5985 22.0449C25.5985 22.0165 25.4294 21.9213 25.2228 21.8334C24.335 21.4561 23.1999 20.5101 22.6084 19.6544C21.0312 17.3731 20.9799 14.4035 22.4782 12.1293C22.8303 11.595 23.6607 10.7785 24.2398 10.3974L24.7675 10.0503L24.4175 9.6565C23.2336 8.32437 21.6192 7.38958 20.0321 7.1172C18.6957 6.8878 17.482 7.0585 15.6883 7.72811C14.4937 8.17407 14.0699 8.27054 13.3134 8.2686C12.5227 8.26655 12.1347 8.18046 10.6951 7.68748C10.0935 7.48147 9.36781 7.26057 9.08246 7.19654C8.37245 7.03733 7.18158 6.99728 6.57548 7.11227Z" fill="white"/>
</svg>
