<svg width="18" height="30" viewBox="0 0 18 30" fill="none" xmlns="http://www.w3.org/2000/svg">
<path fill-rule="evenodd" clip-rule="evenodd" d="M1.57112 0.0441588C0.813567 0.224626 0.214359 0.873308 0.0617108 1.67822C-0.0205703 2.11199 -0.0205703 27.8983 0.0617108 28.332C0.188184 28.9988 0.619309 29.5603 1.22169 29.8427L1.55738 30H8.74671H15.936L16.2717 29.8427C16.8741 29.5603 17.3052 28.9988 17.4317 28.332C17.514 27.8983 17.514 2.11199 17.4317 1.67822C17.3052 1.0114 16.8741 0.44993 16.2717 0.16758L15.936 0.0102369L8.86409 0.000905467C4.85679 -0.00443518 1.69636 0.0143451 1.57112 0.0441588ZM11.0942 1.56548C11.1388 1.64888 11.1388 1.71684 11.0942 1.80023C11.0331 1.9145 10.9714 1.91761 8.74671 1.91761C6.52207 1.91761 6.46033 1.9145 6.39918 1.80023C6.35457 1.71684 6.35457 1.64888 6.39918 1.56548C6.46033 1.45121 6.52207 1.4481 8.74671 1.4481C10.9714 1.4481 11.0331 1.45121 11.0942 1.56548ZM16.0828 14.741V26.2733H8.74671H1.41066V14.741V3.20875H8.74671H16.0828V14.741ZM9.08035 27.04C9.28277 27.1165 9.55045 27.3634 9.6616 27.5762C9.84747 27.9319 9.72493 28.4786 9.39762 28.754C8.72881 29.3168 7.74901 28.8533 7.74901 27.9742C7.74901 27.307 8.46237 26.8065 9.08035 27.04Z" fill="white"/>
</svg>
