<svg width="25" height="25" viewBox="0 0 25 25" fill="none" xmlns="http://www.w3.org/2000/svg">
<path fill-rule="evenodd" clip-rule="evenodd" d="M25 12.5C25 19.4036 19.4036 25 12.5 25C5.59644 25 0 19.4036 0 12.5C0 5.59644 5.59644 0 12.5 0C19.4036 0 25 5.59644 25 12.5ZM17.8599 7.77731C18.0112 7.62416 18.2545 7.62612 18.4033 7.78171C18.5521 7.93729 18.5501 8.18757 18.3988 8.34073L13.6771 13.1205L18.4716 17.8226C18.6253 17.9734 18.6313 18.2237 18.4849 18.3817C18.3386 18.5397 18.0952 18.5455 17.9415 18.3947L13.1292 13.6752L8.38997 18.4727C8.23867 18.6258 7.9954 18.6239 7.8466 18.4683C7.6978 18.3127 7.69982 18.0624 7.85112 17.9093L12.5728 13.1295L7.77843 8.4276C7.62466 8.27679 7.61867 8.02646 7.76505 7.86847C7.91144 7.71048 8.15476 7.70466 8.30853 7.85547L13.1207 12.5749L17.8599 7.77731Z" fill="#B7B7B7"/>
</svg>
